<svg width="48" height="39" viewBox="0 0 48 39" fill="none" xmlns="http://www.w3.org/2000/svg">
<path fill-rule="evenodd" clip-rule="evenodd" d="M6.92306 0H41.0769C44.8943 0 48 3.05149 48 6.80232V32.1977C48 35.9485 44.8943 39 41.0769 39H6.92306C3.10566 39 0 35.9485 0 32.1977V6.80232C0 3.05149 3.10566 0 6.92306 0ZM35.0769 23.5814H45.2308V15.4186H35.0769C32.7864 15.4186 30.9231 17.2494 30.9231 19.5C30.9231 21.7506 32.7865 23.5814 35.0769 23.5814ZM35.0769 12.6977H45.2308V6.80232C45.2308 4.55177 43.3673 2.72089 41.0769 2.72089H6.92306C4.63256 2.72089 2.76919 4.55186 2.76919 6.80232V32.1977C2.76919 34.4482 4.63266 36.2791 6.92306 36.2791H41.0769C43.3674 36.2791 45.2308 34.4481 45.2308 32.1977V26.3023H35.0769C31.2595 26.3023 28.1539 23.2508 28.1539 19.5C28.1539 15.7492 31.2595 12.6977 35.0769 12.6977ZM35.076 18.1396H36.9221C37.6868 18.1396 38.3067 18.7486 38.3067 19.5C38.3067 20.2513 37.6868 20.8605 36.9221 20.8605H35.076C34.3114 20.8605 33.6914 20.2514 33.6914 19.5C33.6914 18.7487 34.3113 18.1396 35.076 18.1396Z" fill="#181818"/>
</svg>
