<svg width="40" height="40" viewBox="0 0 40 40" fill="none" xmlns="http://www.w3.org/2000/svg">
<rect width="40" height="40" rx="4" fill="#181818"/>
<path d="M20.5008 12.2723C20.6891 12.4538 20.7878 12.6848 20.7967 12.9653C20.8049 13.2459 20.7148 13.4769 20.5265 13.6584L15.4928 18.5099L26.9727 18.5099C27.2638 18.5099 27.5079 18.605 27.7052 18.7951C27.9017 18.9845 28 19.2195 28 19.5C28 19.7805 27.9017 20.0158 27.7052 20.2059C27.5079 20.3954 27.2638 20.4901 26.9727 20.4901L15.4928 20.4901L20.5265 25.3416C20.7148 25.5231 20.8049 25.7541 20.7967 26.0347C20.7878 26.3152 20.6891 26.5462 20.5008 26.7277C20.3125 26.9092 20.0728 27 19.7817 27C19.4906 27 19.2509 26.9092 19.0626 26.7277L12.2825 20.1931C12.1798 20.1106 12.1068 20.0076 12.0637 19.8842C12.0212 19.7601 12 19.632 12 19.5C12 19.368 12.0212 19.2442 12.0637 19.1287C12.1068 19.0132 12.1798 18.9059 12.2825 18.8069L19.0626 12.2723C19.2509 12.0908 19.4906 12 19.7817 12C20.0728 12 20.3125 12.0908 20.5008 12.2723Z" fill="#F6F6F6"/>
</svg>
