<svg width="278" height="160" viewBox="0 0 278 160" fill="none" xmlns="http://www.w3.org/2000/svg">
<g clip-path="url(#clip0_110_210)">
<path d="M228.823 34.1247C276.159 61.4518 276.45 105.59 229.473 132.71C182.495 159.83 106.039 159.662 58.7029 132.335C11.3669 105.008 11.0762 60.87 58.0536 33.7499C105.031 6.62978 181.487 6.79761 228.823 34.1247ZM75.715 122.514C113.584 144.376 174.749 144.51 212.331 122.814C249.913 101.118 249.68 65.8074 211.811 43.9458C173.942 22.0841 112.778 21.9498 75.1955 43.6459C37.6136 65.342 37.8461 100.653 75.715 122.514Z" fill="#181818"/>
<path d="M228.823 28.1271C276.159 55.4542 276.45 99.5924 229.473 126.712C182.495 153.833 106.039 153.665 58.7029 126.338C11.3669 99.0105 11.0762 54.8723 58.0536 27.7522C105.031 0.63215 181.487 0.799972 228.823 28.1271ZM75.715 116.517C113.584 138.378 174.749 138.512 212.331 116.816C249.913 95.1204 249.68 59.8098 211.811 37.9481C173.942 16.0864 112.778 15.9522 75.1955 37.6483C37.6136 59.3443 37.8461 94.6549 75.715 116.517Z" fill="#E0D0B0" stroke="#181818"/>
<path d="M58.0536 27.7522C70.7237 20.4378 86.0859 14.8622 103.018 11.4329C119.95 8.00358 138.023 6.80712 155.919 7.93093C173.814 9.05474 191.079 12.4704 206.452 17.9285C221.825 23.3865 234.918 30.749 244.774 39.4781L224.572 47.0289C216.687 40.0457 206.213 34.1557 193.914 29.7892C181.616 25.4228 167.804 22.6903 153.488 21.7912C139.171 20.8922 124.712 21.8493 111.167 24.5928C97.6213 27.3363 85.3316 31.7967 75.1955 37.6483L58.0536 27.7522Z" fill="#181818" stroke="#181818"/>
<path d="M158.609 8.1175C180.877 9.80782 201.937 15.0431 219.424 23.2362C236.912 31.4292 250.136 42.2559 257.614 54.5016C265.092 66.7473 266.527 79.9278 261.758 92.5643C256.99 105.201 246.206 116.794 230.618 126.042L213.247 116.28C225.718 108.881 234.344 99.6072 238.159 89.4979C241.974 79.3887 240.826 68.8443 234.844 59.0477C228.862 49.2511 218.282 40.5898 204.292 34.0354C190.302 27.481 173.455 23.2927 155.64 21.9405L158.609 8.1175Z" fill="#F6F6F6" stroke="#181818"/>
<ellipse cx="60.7295" cy="61.4793" rx="60.7295" ry="61.4793" transform="matrix(0.866044 -0.499967 0.866044 0.499967 37.9248 78.3569)" stroke="#181818" stroke-width="2" stroke-linecap="round" stroke-dasharray="10 10"/>
</g>
<defs>
<clipPath id="clip0_110_210">
<rect width="278" height="160" fill="white"/>
</clipPath>
</defs>
</svg>
