<svg width="278" height="160" viewBox="0 0 278 160" fill="none" xmlns="http://www.w3.org/2000/svg">
<rect width="71.0315" height="19.5949" transform="matrix(0.866071 0.499922 -0.866071 0.499922 48.7904 108.163)" fill="#181818"/>
<rect width="104.506" height="19.5949" transform="matrix(0.866071 0.499922 -0.866071 0.499922 45.2549 76.7347)" fill="#181818"/>
<rect width="89.8099" height="19.5949" transform="matrix(0.866071 0.499922 -0.866071 0.499922 83.4386 69.3877)" fill="#181818"/>
<rect width="47.3543" height="19.5949" transform="matrix(0.866071 0.499922 -0.866071 0.499922 145.664 75.9183)" fill="#181818"/>
<rect width="58.7847" height="19.5949" transform="matrix(0.866071 0.499922 -0.866071 0.499922 161.22 55.5102)" fill="#181818"/>
<rect width="79.196" height="19.5949" transform="matrix(0.866071 0.499922 -0.866071 0.499922 168.999 30.6122)" fill="#181818"/>
<rect width="104.506" height="19.5949" transform="matrix(0.866071 0.499922 -0.866071 0.499922 172.534 3.26527)" fill="#181818"/>
<rect x="-2.98023e-08" y="0.499922" width="70.0315" height="18.5949" transform="matrix(0.866071 0.499922 -0.866071 0.499922 49.9304 105.556)" fill="#E0D0B0" stroke="#181818"/>
<rect x="-8.9407e-08" y="0.499922" width="103.506" height="18.5949" transform="matrix(0.866071 0.499922 -0.866071 0.499922 45.6879 73.7194)" fill="#E0D0B0" stroke="#181818"/>
<rect x="-2.98023e-08" y="0.499922" width="88.8099" height="18.5949" transform="matrix(0.866071 0.499922 -0.866071 0.499922 84.5787 66.7806)" fill="#E0D0B0" stroke="#181818"/>
<rect x="-2.98023e-08" y="0.499922" width="46.3543" height="18.5949" transform="matrix(0.866071 0.499922 -0.866071 0.499922 147.511 73.7194)" fill="#E0D0B0" stroke="#181818"/>
<rect x="-2.98023e-08" y="0.499922" width="57.7847" height="18.5949" transform="matrix(0.866071 0.499922 -0.866071 0.499922 163.067 53.3112)" fill="#E0D0B0" stroke="#181818"/>
<rect x="-2.98023e-08" y="0.499922" width="78.196" height="18.5949" transform="matrix(0.866071 0.499922 -0.866071 0.499922 170.139 28.0051)" fill="#E0D0B0" stroke="#181818"/>
<rect x="-8.9407e-08" y="0.499922" width="103.506" height="18.5949" transform="matrix(0.866071 0.499922 -0.866071 0.499922 172.967 0.24997)" fill="#E0D0B0" stroke="#181818"/>
<circle cx="4.08239" cy="4.08239" r="4.08239" transform="matrix(0.866071 -0.499922 0.866071 0.499922 105.359 151.429)" fill="#181818"/>
<circle cx="4.08239" cy="4.08239" r="4.08239" transform="matrix(0.866071 -0.499922 0.866071 0.499922 130.815 136.735)" fill="#181818"/>
<circle cx="4.08239" cy="4.08239" r="4.08239" transform="matrix(0.866071 -0.499922 0.866071 0.499922 156.271 122.041)" fill="#181818"/>
<circle cx="4.08239" cy="4.08239" r="4.08239" transform="matrix(0.866071 -0.499922 0.866071 0.499922 181.726 107.347)" fill="#181818"/>
<circle cx="4.08239" cy="4.08239" r="4.08239" transform="matrix(0.866071 -0.499922 0.866071 0.499922 207.182 92.653)" fill="#181818"/>
<circle cx="4.08239" cy="4.08239" r="4.08239" transform="matrix(0.866071 -0.499922 0.866071 0.499922 232.638 77.9592)" fill="#181818"/>
<circle cx="4.08239" cy="4.08239" r="4.08239" transform="matrix(0.866071 -0.499922 0.866071 0.499922 258.094 63.2653)" fill="#181818"/>
</svg>
