<svg width="14" height="24" viewBox="0 0 14 24" fill="none" xmlns="http://www.w3.org/2000/svg">
<mask id="path-1-outside-1_12_285" maskUnits="userSpaceOnUse" x="-8.74228e-08" y="-0.0887463" width="14" height="24" fill="black">
<rect fill="white" x="-8.74228e-08" y="-0.0887463" width="14" height="24"/>
<path fill-rule="evenodd" clip-rule="evenodd" d="M12.7657 12.4946C13.0781 12.1822 13.0781 11.6757 12.7657 11.3632C12.7621 11.3597 12.7585 11.3561 12.7549 11.3526L2.58325 1.18099C2.27083 0.868572 1.7643 0.868572 1.45188 1.18099C1.13946 1.49341 1.13946 1.99994 1.45188 2.31236L11.0685 11.929L1.45198 21.5456C1.13956 21.858 1.13956 22.3645 1.45198 22.6769C1.7644 22.9894 2.27093 22.9894 2.58335 22.6769L12.7656 12.4947L12.7657 12.4946Z"/>
</mask>
<path fill-rule="evenodd" clip-rule="evenodd" d="M12.7657 12.4946C13.0781 12.1822 13.0781 11.6757 12.7657 11.3632C12.7621 11.3597 12.7585 11.3561 12.7549 11.3526L2.58325 1.18099C2.27083 0.868572 1.7643 0.868572 1.45188 1.18099C1.13946 1.49341 1.13946 1.99994 1.45188 2.31236L11.0685 11.929L1.45198 21.5456C1.13956 21.858 1.13956 22.3645 1.45198 22.6769C1.7644 22.9894 2.27093 22.9894 2.58335 22.6769L12.7656 12.4947L12.7657 12.4946Z" fill="#181818"/>
<path d="M12.7657 11.3632L12.5535 11.5754L12.5536 11.5754L12.7657 11.3632ZM12.7657 12.4946L12.9778 12.7068L12.9778 12.7067L12.7657 12.4946ZM12.7549 11.3526L12.5427 11.5648L12.5467 11.5686L12.7549 11.3526ZM2.58325 1.18099L2.37112 1.39312L2.37112 1.39312L2.58325 1.18099ZM1.45188 1.18099L1.23975 0.96886L1.23975 0.96886L1.45188 1.18099ZM1.45188 2.31236L1.23975 2.52449L1.23975 2.52449L1.45188 2.31236ZM11.0685 11.929L11.2807 12.1411L11.4928 11.929L11.2807 11.7169L11.0685 11.929ZM1.45198 21.5456L1.23985 21.3334L1.23984 21.3334L1.45198 21.5456ZM1.45198 22.6769L1.23984 22.8891L1.23985 22.8891L1.45198 22.6769ZM2.58335 22.6769L2.79548 22.8891L2.79548 22.8891L2.58335 22.6769ZM12.7656 12.4947L12.5535 12.2825L12.5535 12.2826L12.7656 12.4947ZM12.5536 11.5754C12.7488 11.7706 12.7488 12.0872 12.5536 12.2825L12.9778 12.7067C13.4074 12.2772 13.4074 11.5807 12.9778 11.1511L12.5536 11.5754ZM12.5467 11.5686C12.549 11.5709 12.5513 11.5731 12.5535 11.5754L12.9778 11.1511C12.9729 11.1462 12.968 11.1414 12.963 11.1366L12.5467 11.5686ZM2.37112 1.39312L12.5427 11.5648L12.967 11.1405L2.79538 0.96886L2.37112 1.39312ZM1.66401 1.39312C1.85928 1.19786 2.17586 1.19786 2.37112 1.39312L2.79538 0.96886C2.36581 0.539282 1.66933 0.539283 1.23975 0.96886L1.66401 1.39312ZM1.66401 2.10023C1.46875 1.90497 1.46875 1.58839 1.66401 1.39312L1.23975 0.96886C0.810172 1.39844 0.810172 2.09492 1.23975 2.52449L1.66401 2.10023ZM11.2807 11.7169L1.66401 2.10023L1.23975 2.52449L10.8564 12.1411L11.2807 11.7169ZM1.66411 21.7577L11.2807 12.1411L10.8564 11.7169L1.23985 21.3334L1.66411 21.7577ZM1.66411 22.4648C1.46885 22.2695 1.46885 21.953 1.66411 21.7577L1.23984 21.3334C0.810269 21.763 0.810269 22.4595 1.23984 22.8891L1.66411 22.4648ZM2.37122 22.4648C2.17595 22.6601 1.85937 22.6601 1.66411 22.4648L1.23985 22.8891C1.66942 23.3186 2.3659 23.3186 2.79548 22.8891L2.37122 22.4648ZM12.5535 12.2826L2.37122 22.4648L2.79548 22.8891L12.9777 12.7068L12.5535 12.2826ZM12.5536 12.2824L12.5535 12.2825L12.9777 12.7069L12.9778 12.7068L12.5536 12.2824Z" fill="#181818" mask="url(#path-1-outside-1_12_285)"/>
</svg>
