<svg width="14" height="24" viewBox="0 0 14 24" fill="none" xmlns="http://www.w3.org/2000/svg">
<mask id="path-1-outside-1_12_280" maskUnits="userSpaceOnUse" x="0" y="0.0887451" width="14" height="24" fill="black">
<rect fill="white" y="0.0887451" width="14" height="24"/>
<path fill-rule="evenodd" clip-rule="evenodd" d="M1.23431 11.5054C0.921895 11.8178 0.921895 12.3243 1.23431 12.6368C1.23789 12.6403 1.2415 12.6439 1.24513 12.6474L11.4168 22.819C11.7292 23.1314 12.2357 23.1314 12.5481 22.819C12.8605 22.5066 12.8605 22.0001 12.5481 21.6876L2.93147 12.071L12.548 2.45443C12.8604 2.14201 12.8604 1.63548 12.548 1.32306C12.2356 1.01064 11.7291 1.01064 11.4167 1.32306L1.23441 11.5053L1.23431 11.5054Z"/>
</mask>
<path fill-rule="evenodd" clip-rule="evenodd" d="M1.23431 11.5054C0.921895 11.8178 0.921895 12.3243 1.23431 12.6368C1.23789 12.6403 1.2415 12.6439 1.24513 12.6474L11.4168 22.819C11.7292 23.1314 12.2357 23.1314 12.5481 22.819C12.8605 22.5066 12.8605 22.0001 12.5481 21.6876L2.93147 12.071L12.548 2.45443C12.8604 2.14201 12.8604 1.63548 12.548 1.32306C12.2356 1.01064 11.7291 1.01064 11.4167 1.32306L1.23441 11.5053L1.23431 11.5054Z" fill="#181818"/>
<path d="M1.23431 12.6368L1.44646 12.4246L1.44645 12.4246L1.23431 12.6368ZM1.23431 11.5054L1.02223 11.2932L1.02218 11.2933L1.23431 11.5054ZM1.24513 12.6474L1.4573 12.4352L1.45329 12.4314L1.24513 12.6474ZM11.4168 22.819L11.6289 22.6069L11.6289 22.6069L11.4168 22.819ZM12.5481 22.819L12.7603 23.0311L12.7603 23.0311L12.5481 22.819ZM12.5481 21.6876L12.7603 21.4755L12.7603 21.4755L12.5481 21.6876ZM2.93147 12.071L2.71934 11.8589L2.50721 12.071L2.71934 12.2831L2.93147 12.071ZM12.548 2.45443L12.7602 2.66656L12.7602 2.66656L12.548 2.45443ZM12.548 1.32306L12.7602 1.11093L12.7602 1.11093L12.548 1.32306ZM11.4167 1.32306L11.2045 1.11093L11.2045 1.11093L11.4167 1.32306ZM1.23441 11.5053L1.4465 11.7175L1.44655 11.7174L1.23441 11.5053ZM1.44645 12.4246C1.25118 12.2294 1.25118 11.9128 1.44645 11.7175L1.02218 11.2933C0.592606 11.7228 0.592606 12.4193 1.02218 12.8489L1.44645 12.4246ZM1.45329 12.4314C1.45098 12.4291 1.4487 12.4269 1.44646 12.4246L1.02217 12.8489C1.02708 12.8538 1.03201 12.8586 1.03696 12.8634L1.45329 12.4314ZM11.6289 22.6069L1.45726 12.4352L1.03299 12.8595L11.2046 23.0311L11.6289 22.6069ZM12.336 22.6069C12.1407 22.8021 11.8241 22.8021 11.6289 22.6069L11.2046 23.0311C11.6342 23.4607 12.3307 23.4607 12.7603 23.0311L12.336 22.6069ZM12.336 21.8998C12.5313 22.095 12.5313 22.4116 12.336 22.6069L12.7603 23.0311C13.1898 22.6016 13.1898 21.9051 12.7603 21.4755L12.336 21.8998ZM2.71934 12.2831L12.336 21.8998L12.7603 21.4755L3.1436 11.8589L2.71934 12.2831ZM12.3359 2.2423L2.71934 11.8589L3.1436 12.2831L12.7602 2.66656L12.3359 2.2423ZM12.3359 1.53519C12.5312 1.73045 12.5312 2.04704 12.3359 2.2423L12.7602 2.66656C13.1897 2.23699 13.1897 1.5405 12.7602 1.11093L12.3359 1.53519ZM11.6288 1.53519C11.824 1.33993 12.1406 1.33993 12.3359 1.53519L12.7602 1.11093C12.3306 0.681351 11.6341 0.681351 11.2045 1.11093L11.6288 1.53519ZM1.44655 11.7174L11.6288 1.53519L11.2045 1.11093L1.02228 11.2932L1.44655 11.7174ZM1.4464 11.7176L1.4465 11.7175L1.02233 11.2931L1.02223 11.2932L1.4464 11.7176Z" fill="#181818" mask="url(#path-1-outside-1_12_280)"/>
</svg>
