<svg width="278" height="160" viewBox="0 0 278 160" fill="none" xmlns="http://www.w3.org/2000/svg">
<rect width="209.012" height="104.506" rx="24" transform="matrix(0.866071 -0.499922 0.866071 0.499922 2.82846 107.755)" fill="#181818"/>
<rect x="0.866071" width="208.012" height="103.506" rx="23.5" transform="matrix(0.866071 -0.499922 0.866071 0.499922 2.94445 104.923)" fill="#F6F6F6" stroke="#181818"/>
<rect width="209.012" height="19.5949" transform="matrix(0.866071 -0.499922 0.866071 0.499922 22.6274 115.918)" fill="#181818"/>
<rect width="78.3796" height="9.79745" rx="4.89872" transform="matrix(0.866071 -0.499922 0.866071 0.499922 62.2253 125.714)" fill="#181818"/>
<rect width="52.2531" height="26.1265" rx="8" transform="matrix(0.866071 -0.499922 0.866071 0.499922 175.363 60.4082)" fill="#E0D0B0"/>
<rect width="26.1273" height="9.79775" rx="4.89887" transform="matrix(0.866071 -0.499922 0.866071 0.499922 76.3676 133.878)" fill="#181818"/>
<rect width="26.1273" height="9.79775" rx="4.89887" transform="matrix(0.866071 -0.499922 0.866071 0.499922 104.652 117.551)" fill="#181818"/>
</svg>
